<mxfile host="app.diagrams.net" agent="Mozilla/5.0 (Windows NT 10.0; Win64; x64) AppleWebKit/537.36 (KHTML, like Gecko) Chrome/133.0.0.0 Safari/537.36" version="26.1.0">
  <diagram name="Сторінка-1" id="ybEHePaw-rxImrspeh2l">
    <mxGraphModel dx="1593" dy="829" grid="1" gridSize="10" guides="1" tooltips="1" connect="1" arrows="1" fold="1" page="1" pageScale="1" pageWidth="310" pageHeight="300" background="#C4C4C4" math="0" shadow="0">
      <root>
        <mxCell id="0" />
        <mxCell id="1" parent="0" />
        <mxCell id="Y9asK6_f1USQNMOrTxVK-40" value="" style="group" vertex="1" connectable="0" parent="1">
          <mxGeometry x="10" y="10" width="590" height="720" as="geometry" />
        </mxCell>
        <mxCell id="Y9asK6_f1USQNMOrTxVK-9" style="edgeStyle=orthogonalEdgeStyle;rounded=0;orthogonalLoop=1;jettySize=auto;html=1;entryX=0.5;entryY=0;entryDx=0;entryDy=0;" edge="1" parent="Y9asK6_f1USQNMOrTxVK-40" source="Y9asK6_f1USQNMOrTxVK-1" target="Y9asK6_f1USQNMOrTxVK-3">
          <mxGeometry relative="1" as="geometry" />
        </mxCell>
        <mxCell id="Y9asK6_f1USQNMOrTxVK-10" style="edgeStyle=orthogonalEdgeStyle;rounded=0;orthogonalLoop=1;jettySize=auto;html=1;exitX=1;exitY=0.5;exitDx=0;exitDy=0;entryX=0.5;entryY=0;entryDx=0;entryDy=0;" edge="1" parent="Y9asK6_f1USQNMOrTxVK-40" source="Y9asK6_f1USQNMOrTxVK-1" target="Y9asK6_f1USQNMOrTxVK-7">
          <mxGeometry relative="1" as="geometry" />
        </mxCell>
        <mxCell id="Y9asK6_f1USQNMOrTxVK-1" value="Page- Accueil" style="rounded=1;whiteSpace=wrap;html=1;" vertex="1" parent="Y9asK6_f1USQNMOrTxVK-40">
          <mxGeometry x="340" y="110" width="120" height="60" as="geometry" />
        </mxCell>
        <mxCell id="Y9asK6_f1USQNMOrTxVK-14" style="edgeStyle=orthogonalEdgeStyle;rounded=0;orthogonalLoop=1;jettySize=auto;html=1;exitX=0.5;exitY=1;exitDx=0;exitDy=0;entryX=0.5;entryY=0;entryDx=0;entryDy=0;" edge="1" parent="Y9asK6_f1USQNMOrTxVK-40" source="Y9asK6_f1USQNMOrTxVK-3" target="Y9asK6_f1USQNMOrTxVK-13">
          <mxGeometry relative="1" as="geometry" />
        </mxCell>
        <mxCell id="Y9asK6_f1USQNMOrTxVK-3" value="Page- Régistration" style="rounded=1;whiteSpace=wrap;html=1;" vertex="1" parent="Y9asK6_f1USQNMOrTxVK-40">
          <mxGeometry x="210" y="210" width="120" height="60" as="geometry" />
        </mxCell>
        <mxCell id="Y9asK6_f1USQNMOrTxVK-23" style="edgeStyle=orthogonalEdgeStyle;rounded=0;orthogonalLoop=1;jettySize=auto;html=1;exitX=0.5;exitY=1;exitDx=0;exitDy=0;entryX=0.5;entryY=0;entryDx=0;entryDy=0;" edge="1" parent="Y9asK6_f1USQNMOrTxVK-40" source="Y9asK6_f1USQNMOrTxVK-4" target="Y9asK6_f1USQNMOrTxVK-22">
          <mxGeometry relative="1" as="geometry" />
        </mxCell>
        <mxCell id="Y9asK6_f1USQNMOrTxVK-4" value="Page- Connéxion" style="rounded=1;whiteSpace=wrap;html=1;" vertex="1" parent="Y9asK6_f1USQNMOrTxVK-40">
          <mxGeometry x="210" y="360" width="120" height="60" as="geometry" />
        </mxCell>
        <mxCell id="Y9asK6_f1USQNMOrTxVK-37" style="edgeStyle=orthogonalEdgeStyle;rounded=0;orthogonalLoop=1;jettySize=auto;html=1;exitX=0.5;exitY=1;exitDx=0;exitDy=0;entryX=0.5;entryY=0;entryDx=0;entryDy=0;" edge="1" parent="Y9asK6_f1USQNMOrTxVK-40" source="Y9asK6_f1USQNMOrTxVK-5" target="Y9asK6_f1USQNMOrTxVK-35">
          <mxGeometry relative="1" as="geometry" />
        </mxCell>
        <mxCell id="Y9asK6_f1USQNMOrTxVK-5" value="Page- Détails" style="rounded=1;whiteSpace=wrap;html=1;" vertex="1" parent="Y9asK6_f1USQNMOrTxVK-40">
          <mxGeometry x="470" y="360" width="120" height="60" as="geometry" />
        </mxCell>
        <mxCell id="Y9asK6_f1USQNMOrTxVK-6" value="&lt;font style=&quot;color: rgb(255, 0, 0);&quot;&gt;Page- Administration&lt;/font&gt;" style="rounded=1;whiteSpace=wrap;html=1;" vertex="1" parent="Y9asK6_f1USQNMOrTxVK-40">
          <mxGeometry y="320" width="120" height="60" as="geometry" />
        </mxCell>
        <mxCell id="Y9asK6_f1USQNMOrTxVK-17" style="edgeStyle=orthogonalEdgeStyle;rounded=0;orthogonalLoop=1;jettySize=auto;html=1;exitX=0.5;exitY=1;exitDx=0;exitDy=0;entryX=0.5;entryY=0;entryDx=0;entryDy=0;" edge="1" parent="Y9asK6_f1USQNMOrTxVK-40" source="Y9asK6_f1USQNMOrTxVK-7" target="Y9asK6_f1USQNMOrTxVK-16">
          <mxGeometry relative="1" as="geometry" />
        </mxCell>
        <mxCell id="Y9asK6_f1USQNMOrTxVK-7" value="Page- Connéxion" style="rounded=1;whiteSpace=wrap;html=1;" vertex="1" parent="Y9asK6_f1USQNMOrTxVK-40">
          <mxGeometry x="470" y="210" width="120" height="60" as="geometry" />
        </mxCell>
        <mxCell id="Y9asK6_f1USQNMOrTxVK-15" style="edgeStyle=orthogonalEdgeStyle;rounded=0;orthogonalLoop=1;jettySize=auto;html=1;exitX=0.5;exitY=1;exitDx=0;exitDy=0;" edge="1" parent="Y9asK6_f1USQNMOrTxVK-40" source="Y9asK6_f1USQNMOrTxVK-13" target="Y9asK6_f1USQNMOrTxVK-4">
          <mxGeometry relative="1" as="geometry" />
        </mxCell>
        <mxCell id="Y9asK6_f1USQNMOrTxVK-13" value="proccess- Créeation du compte" style="ellipse;whiteSpace=wrap;html=1;fillColor=#dae8fc;strokeColor=#6c8ebf;" vertex="1" parent="Y9asK6_f1USQNMOrTxVK-40">
          <mxGeometry x="232.5" y="290" width="75" height="50" as="geometry" />
        </mxCell>
        <mxCell id="Y9asK6_f1USQNMOrTxVK-18" style="edgeStyle=orthogonalEdgeStyle;rounded=0;orthogonalLoop=1;jettySize=auto;html=1;exitX=0.5;exitY=1;exitDx=0;exitDy=0;entryX=0.5;entryY=0;entryDx=0;entryDy=0;" edge="1" parent="Y9asK6_f1USQNMOrTxVK-40" source="Y9asK6_f1USQNMOrTxVK-16" target="Y9asK6_f1USQNMOrTxVK-5">
          <mxGeometry relative="1" as="geometry" />
        </mxCell>
        <mxCell id="Y9asK6_f1USQNMOrTxVK-16" value="proccess- Connéxion" style="ellipse;whiteSpace=wrap;html=1;fillColor=#dae8fc;strokeColor=#6c8ebf;" vertex="1" parent="Y9asK6_f1USQNMOrTxVK-40">
          <mxGeometry x="492.5" y="290" width="75" height="50" as="geometry" />
        </mxCell>
        <mxCell id="Y9asK6_f1USQNMOrTxVK-31" style="edgeStyle=orthogonalEdgeStyle;rounded=0;orthogonalLoop=1;jettySize=auto;html=1;exitX=0.5;exitY=1;exitDx=0;exitDy=0;entryX=0.5;entryY=0;entryDx=0;entryDy=0;" edge="1" parent="Y9asK6_f1USQNMOrTxVK-40" source="Y9asK6_f1USQNMOrTxVK-20" target="Y9asK6_f1USQNMOrTxVK-30">
          <mxGeometry relative="1" as="geometry" />
        </mxCell>
        <mxCell id="Y9asK6_f1USQNMOrTxVK-20" value="Page- Détails" style="rounded=1;whiteSpace=wrap;html=1;" vertex="1" parent="Y9asK6_f1USQNMOrTxVK-40">
          <mxGeometry x="210" y="510" width="120" height="60" as="geometry" />
        </mxCell>
        <mxCell id="Y9asK6_f1USQNMOrTxVK-21" style="edgeStyle=orthogonalEdgeStyle;rounded=0;orthogonalLoop=1;jettySize=auto;html=1;exitX=0.5;exitY=1;exitDx=0;exitDy=0;entryX=0.5;entryY=0;entryDx=0;entryDy=0;" edge="1" parent="Y9asK6_f1USQNMOrTxVK-40" source="Y9asK6_f1USQNMOrTxVK-22" target="Y9asK6_f1USQNMOrTxVK-20">
          <mxGeometry relative="1" as="geometry" />
        </mxCell>
        <mxCell id="Y9asK6_f1USQNMOrTxVK-22" value="proccess- Connéxion" style="ellipse;whiteSpace=wrap;html=1;fillColor=#dae8fc;strokeColor=#6c8ebf;" vertex="1" parent="Y9asK6_f1USQNMOrTxVK-40">
          <mxGeometry x="232.5" y="440" width="75" height="50" as="geometry" />
        </mxCell>
        <mxCell id="Y9asK6_f1USQNMOrTxVK-27" style="edgeStyle=orthogonalEdgeStyle;rounded=0;orthogonalLoop=1;jettySize=auto;html=1;exitX=0.5;exitY=1;exitDx=0;exitDy=0;entryX=0.5;entryY=0;entryDx=0;entryDy=0;" edge="1" parent="Y9asK6_f1USQNMOrTxVK-40" source="Y9asK6_f1USQNMOrTxVK-25" target="Y9asK6_f1USQNMOrTxVK-6">
          <mxGeometry relative="1" as="geometry" />
        </mxCell>
        <mxCell id="Y9asK6_f1USQNMOrTxVK-25" value="Role- Admin" style="shape=hexagon;perimeter=hexagonPerimeter2;whiteSpace=wrap;html=1;fixedSize=1;fillColor=#f8cecc;strokeColor=#b85450;" vertex="1" parent="Y9asK6_f1USQNMOrTxVK-40">
          <mxGeometry y="190" width="120" height="80" as="geometry" />
        </mxCell>
        <mxCell id="Y9asK6_f1USQNMOrTxVK-26" value="&lt;font style=&quot;color: rgb(255, 0, 0);&quot;&gt;Si vous&amp;nbsp;êtes admin vous pouvez accéder à cette page&lt;/font&gt;" style="shape=callout;whiteSpace=wrap;html=1;perimeter=calloutPerimeter;" vertex="1" parent="Y9asK6_f1USQNMOrTxVK-40">
          <mxGeometry x="50" y="110" width="120" height="80" as="geometry" />
        </mxCell>
        <mxCell id="Y9asK6_f1USQNMOrTxVK-28" value="Page- Login" style="rounded=1;whiteSpace=wrap;html=1;" vertex="1" parent="Y9asK6_f1USQNMOrTxVK-40">
          <mxGeometry x="210" y="660" width="120" height="60" as="geometry" />
        </mxCell>
        <mxCell id="Y9asK6_f1USQNMOrTxVK-29" style="edgeStyle=orthogonalEdgeStyle;rounded=0;orthogonalLoop=1;jettySize=auto;html=1;exitX=0.5;exitY=1;exitDx=0;exitDy=0;entryX=0.5;entryY=0;entryDx=0;entryDy=0;" edge="1" parent="Y9asK6_f1USQNMOrTxVK-40" source="Y9asK6_f1USQNMOrTxVK-30" target="Y9asK6_f1USQNMOrTxVK-28">
          <mxGeometry relative="1" as="geometry" />
        </mxCell>
        <mxCell id="Y9asK6_f1USQNMOrTxVK-30" value="proccess- Deconnéxion" style="ellipse;whiteSpace=wrap;html=1;fillColor=#dae8fc;strokeColor=#6c8ebf;" vertex="1" parent="Y9asK6_f1USQNMOrTxVK-40">
          <mxGeometry x="232.5" y="590" width="75" height="50" as="geometry" />
        </mxCell>
        <mxCell id="Y9asK6_f1USQNMOrTxVK-33" value="Page- Login" style="rounded=1;whiteSpace=wrap;html=1;" vertex="1" parent="Y9asK6_f1USQNMOrTxVK-40">
          <mxGeometry x="470" y="510" width="120" height="60" as="geometry" />
        </mxCell>
        <mxCell id="Y9asK6_f1USQNMOrTxVK-34" style="edgeStyle=orthogonalEdgeStyle;rounded=0;orthogonalLoop=1;jettySize=auto;html=1;exitX=0.5;exitY=1;exitDx=0;exitDy=0;entryX=0.5;entryY=0;entryDx=0;entryDy=0;" edge="1" parent="Y9asK6_f1USQNMOrTxVK-40" source="Y9asK6_f1USQNMOrTxVK-35" target="Y9asK6_f1USQNMOrTxVK-33">
          <mxGeometry relative="1" as="geometry" />
        </mxCell>
        <mxCell id="Y9asK6_f1USQNMOrTxVK-35" value="proccess- Deconnéxion" style="ellipse;whiteSpace=wrap;html=1;fillColor=#dae8fc;strokeColor=#6c8ebf;" vertex="1" parent="Y9asK6_f1USQNMOrTxVK-40">
          <mxGeometry x="492.5" y="440" width="75" height="50" as="geometry" />
        </mxCell>
        <mxCell id="Y9asK6_f1USQNMOrTxVK-39" style="edgeStyle=orthogonalEdgeStyle;rounded=0;orthogonalLoop=1;jettySize=auto;html=1;exitX=0.5;exitY=1;exitDx=0;exitDy=0;entryX=0.5;entryY=0;entryDx=0;entryDy=0;" edge="1" parent="Y9asK6_f1USQNMOrTxVK-40" source="Y9asK6_f1USQNMOrTxVK-38" target="Y9asK6_f1USQNMOrTxVK-1">
          <mxGeometry relative="1" as="geometry" />
        </mxCell>
        <mxCell id="Y9asK6_f1USQNMOrTxVK-38" value="Role- User" style="shape=hexagon;perimeter=hexagonPerimeter2;whiteSpace=wrap;html=1;fixedSize=1;fillColor=#d5e8d4;strokeColor=#82b366;" vertex="1" parent="Y9asK6_f1USQNMOrTxVK-40">
          <mxGeometry x="340" width="120" height="80" as="geometry" />
        </mxCell>
      </root>
    </mxGraphModel>
  </diagram>
</mxfile>
